<svg aria-hidden="true" style="position: absolute; width: 0; height: 0; overflow: hidden;" version="1.1" xmlns="http://www.w3.org/2000/svg" xmlns:xlink="http://www.w3.org/1999/xlink">
<defs>
<symbol id="icon-arrow-big" viewBox="0 0 82 32">
<path d="M81.414 17.414c0.362-0.362 0.586-0.862 0.586-1.414s-0.224-1.052-0.586-1.414l-12.728-12.728c-0.364-0.377-0.874-0.611-1.439-0.611-1.105 0-2 0.895-2 2 0 0.565 0.234 1.074 0.61 1.438l0.001 0.001 11.314 11.314-11.314 11.314c-0.347 0.359-0.561 0.849-0.561 1.389 0 1.105 0.895 2 2 2 0.54 0 1.030-0.214 1.39-0.562l-0.001 0.001 12.728-12.728zM0 18h80v-4h-80v4z"></path>
</symbol>
<symbol id="icon-arrow-small" viewBox="0 0 32 32">
<path d="M10.587 3.272c-0.361 0.362-0.585 0.861-0.585 1.413s0.223 1.051 0.585 1.413l9.899 9.901-9.899 9.901c-0.333 0.356-0.537 0.836-0.537 1.363 0 1.105 0.895 2 2 2 0.527 0 1.007-0.204 1.365-0.538l-0.001 0.001 11.315-11.315c0.361-0.362 0.585-0.861 0.585-1.413s-0.224-1.052-0.585-1.413l-11.315-11.315c-0.362-0.361-0.861-0.585-1.413-0.585s-1.052 0.224-1.413 0.585l0-0z"></path>
</symbol>
<symbol id="icon-toggle-button" viewBox="0 0 32 32">
<path d="M26.733 14.667h-21.466c-0.7 0-1.267 0.567-1.267 1.266v0.134c0 0.7 0.567 1.266 1.267 1.266h21.466c0.7 0 1.267-0.567 1.267-1.266v-0.134c0-0.7-0.567-1.266-1.267-1.266zM26.733 21.333h-21.466c-0.7 0-1.267 0.567-1.267 1.267v0.133c0 0.7 0.567 1.267 1.267 1.267h21.466c0.7 0 1.267-0.567 1.267-1.267v-0.133c0-0.7-0.567-1.267-1.267-1.267zM26.733 8h-21.466c-0.7 0-1.267 0.567-1.267 1.267v0.133c0 0.7 0.567 1.267 1.267 1.267h21.466c0.7 0 1.267-0.567 1.267-1.267v-0.133c0-0.7-0.567-1.267-1.267-1.267z"></path>
</symbol>
<symbol id="icon-menu-close" viewBox="0 0 32 32">
<path d="M23.884 6.706l-7.884 7.884-7.884-7.884c-0.19-0.174-0.439-0.267-0.696-0.261s-0.502 0.11-0.684 0.292c-0.182 0.182-0.286 0.427-0.292 0.684s0.088 0.506 0.261 0.696l7.88 7.884-7.882 7.882c-0.096 0.092-0.173 0.202-0.226 0.324s-0.081 0.253-0.083 0.386 0.023 0.265 0.073 0.388c0.050 0.123 0.124 0.235 0.218 0.329s0.206 0.169 0.329 0.219 0.255 0.075 0.388 0.074c0.133-0.002 0.264-0.029 0.386-0.082s0.232-0.13 0.324-0.226l7.886-7.882 7.884 7.884c0.19 0.174 0.439 0.267 0.696 0.262s0.502-0.11 0.684-0.292c0.182-0.182 0.286-0.427 0.292-0.684s-0.088-0.506-0.262-0.696l-7.884-7.884 7.884-7.886c0.096-0.092 0.173-0.202 0.226-0.324s0.081-0.253 0.083-0.386c0.002-0.133-0.023-0.265-0.073-0.388s-0.124-0.235-0.218-0.329c-0.094-0.094-0.206-0.169-0.329-0.219s-0.255-0.075-0.388-0.074-0.264 0.029-0.386 0.082c-0.122 0.053-0.232 0.13-0.324 0.226v0.002z"></path>
</symbol>
<symbol id="icon-close" viewBox="0 0 32 32">
<path d="M18.149 16l12.631-12.633c0.224-0.264 0.36-0.608 0.36-0.984 0-0.842-0.683-1.525-1.525-1.525-0.376 0-0.721 0.136-0.987 0.362l0.002-0.002-12.631 12.633-12.633-12.647c-0.281-0.308-0.684-0.501-1.133-0.501-0.846 0-1.531 0.686-1.531 1.531 0 0.448 0.192 0.85 0.498 1.13l0.001 0.001 12.649 12.633-12.649 12.633c-0.317 0.28-0.516 0.688-0.516 1.142 0 0.841 0.682 1.522 1.522 1.522 0.454 0 0.862-0.199 1.141-0.514l0.001-0.002 12.649-12.633 12.633 12.633c0.264 0.224 0.608 0.36 0.984 0.36 0.842 0 1.525-0.683 1.525-1.525 0-0.376-0.136-0.721-0.362-0.987l0.002 0.002-12.633-12.633z"></path>
</symbol>
<symbol id="icon-facebook" viewBox="0 0 16 32">
<path d="M14.143 15.971h-4.033v14.865h-6.112v-14.865h-2.906v-5.222h2.906v-3.382c0-2.417 1.142-6.204 6.167-6.204l4.527 0.019v5.072h-3.284c-0.538 0-1.297 0.272-1.297 1.425v3.073h4.567l-0.534 5.219z"></path>
</symbol>
<symbol id="icon-github" viewBox="0 0 32 32">
<path d="M16 0c-8.789 0-16 7.211-16 16 0 7.499 5.262 14.312 12.25 16v-5.293c-0.276 0.070-0.593 0.109-0.919 0.109-0.398 0-0.781-0.059-1.143-0.169l0.028 0.007c-0.946-0.278-1.714-0.909-2.285-1.869-0.363-0.613-1.008-1.28-1.68-1.23l-0.165-1.867c1.454-0.125 2.71 0.886 3.456 2.139 0.333 0.558 0.715 0.885 1.205 1.029 0.472 0.141 0.981 0.074 1.573-0.136 0.149-1.186 0.693-1.629 1.104-2.256-4.168-0.621-5.829-2.832-6.488-4.576-0.874-2.318-0.405-5.213 1.139-7.043 0.030-0.035 0.085-0.128 0.064-0.192-0.709-2.141 0.154-3.91 0.186-4.098 0.818 0.24 0.95-0.243 3.552 1.336l0.448 0.27c0.189 0.112 0.128 0.048 0.317 0.032 1.003-0.282 2.157-0.452 3.349-0.469l0.010-0c1.136 0.014 2.272 0.176 3.403 0.483l0.146 0.016c-0.013-0.003 0.040-0.010 0.128-0.062 3.248-1.968 3.131-1.325 4.003-1.608 0.032 0.189 0.882 1.987 0.182 4.099-0.096 0.291 2.816 2.957 1.202 7.235-0.659 1.744-2.32 3.957-6.486 4.578 0.534 0.816 1.176 1.248 1.173 2.928v6.606c6.986-1.688 12.25-8.501 12.25-16 0-8.789-7.211-16-16-16z"></path>
</symbol>
<symbol id="icon-logo" viewBox="0 0 34 32">
<path d="M17.412 14.169c1.636-4.385-1.75-6.784-3.994-8.363-0.429-0.321-0.858-0.623-1.205-0.898-0.607-0.508-1.065-1.176-1.31-1.939l-0.008-0.030c-0.12-0.37-0.189-0.795-0.189-1.237 0-0.4 0.057-0.787 0.162-1.153l-0.007 0.029c0.010-0.036 0.016-0.078 0.016-0.12 0-0.133-0.057-0.253-0.149-0.336l-0-0c-0.082-0.075-0.193-0.122-0.314-0.122-0.057 0-0.111 0.010-0.162 0.029l0.003-0.001c-0.755 0.295-1.458 0.709-2.081 1.225-0.592 0.454-1.070 1.025-1.404 1.682l-0.013 0.028c-0.32 0.627-0.508 1.368-0.51 2.152v0.001c-0.424 0.332-0.791 0.711-1.1 1.133l-0.011 0.016c-0.515 0.687-0.824 1.553-0.824 2.492 0 0.070 0.002 0.141 0.005 0.21l-0-0.010c-0.671 0.609-1.183 1.381-1.475 2.254l-0.011 0.038c-0.165 0.489-0.26 1.052-0.26 1.637 0 0.382 0.041 0.755 0.118 1.114l-0.006-0.035c-0.273 0.164-0.485 0.411-0.602 0.704-0.064 0.157-0.102 0.339-0.102 0.529 0 0.14 0.020 0.275 0.058 0.402l-0.003-0.010c0.087 0.304 0.272 0.571 0.527 0.761s0.567 0.292 0.886 0.289h0.030v2.493c0 0.253 0.102 0.496 0.283 0.675s0.427 0.279 0.683 0.279h0.751l1.223 10.473c0.025 0.233 0.137 0.449 0.313 0.605 0.178 0.156 0.406 0.243 0.644 0.243h5.089c0.238-0.001 0.466-0.087 0.644-0.244s0.29-0.371 0.317-0.604l1.223-10.473h0.751c0.256 0 0.501-0.1 0.683-0.279s0.282-0.422 0.282-0.675v-2.493h0.031c0 0 0 0 0 0 0.403 0 0.768-0.162 1.034-0.424l-0 0c0.274-0.27 0.429-0.639 0.429-1.022 0-0.005 0-0.011 0-0.017 0-0.398-0.164-0.757-0.429-1.014l-0-0-0.013 0.005zM6.399 6.214c0.619 2.294 3.004 3.197 5.179 4.004 0.070 0.043 0.154 0.068 0.244 0.068 0.197 0 0.366-0.121 0.436-0.292l0.001-0.003c0.020-0.049 0.031-0.107 0.031-0.167 0-0.154-0.076-0.291-0.194-0.374l-0.001-0.001c-0.053-0.038-0.116-0.066-0.185-0.078l-0.003-0c-2.342-0.878-4.552-1.696-4.72-4.041-0.005-0.070-0.007-0.152-0.007-0.234 0-0.596 0.134-1.16 0.374-1.665l-0.010 0.023c0.284-0.6 0.694-1.099 1.199-1.48l0.010-0.007c0.307-0.254 0.65-0.49 1.012-0.694l0.035-0.018c-0.011 0.132-0.018 0.286-0.018 0.441s0.006 0.309 0.019 0.461l-0.001-0.020c0.050 0.672 0.235 1.327 0.547 1.927 0.324 0.616 0.748 1.135 1.255 1.556l0.008 0.007c0.356 0.301 0.798 0.61 1.287 0.941 1.129 0.801 2.411 1.696 3.226 2.908 0.509 0.718 0.814 1.612 0.814 2.576 0 0.623-0.127 1.217-0.357 1.756l0.011-0.029h-1.897c-3.908 0.001-8.4-1.068-9.289-4.061-0.083-0.28-0.131-0.602-0.131-0.936 0-0.338 0.049-0.664 0.141-0.972l-0.006 0.024c0.19-0.638 0.54-1.179 1.005-1.595l0.003-0.003-0.021-0.021zM9.917 20.669l1.433 1.416-1.433 1.417-1.433-1.425 1.433-1.408zM13.204 24.388l-1.185 1.17-1.433-1.417 1.433-1.412 1.244 1.225-0.060 0.432zM9.917 27.636l-1.434-1.417 1.433-1.417 1.433 1.417-1.433 1.417zM9.261 24.15l-1.433 1.417-1.193-1.179-0.051-0.424 1.244-1.225 1.433 1.412zM7.167 26.219l-0.287 0.284-0.073-0.645 0.36 0.361zM7.017 27.67l0.811-0.802 1.574 1.569c0.008 0.031 0.018 0.063 0.030 0.092h-2.317l-0.099-0.86zM12.011 26.868l0.811 0.801-0.098 0.848h-2.382l1.669-1.65zM12.955 26.504l-0.288-0.284 0.365-0.361-0.077 0.645zM13.384 22.797l-0.717-0.721 0.91-0.899-0.193 1.62zM12.006 21.432l-1.36-1.34h2.72l-1.36 1.34zM7.823 21.432l-1.359-1.34h2.72l-1.36 1.34zM12.457 30.49h-5.084c-0.016-0.002-0.028-0.014-0.030-0.030l-0-0-0.121-1.018h5.389l-0.116 1.018c-0.002 0.017-0.017 0.030-0.034 0.030-0 0-0 0-0 0v0h-0.004zM16.391 15.716h-1.493c-0.013-0.001-0.028-0.002-0.043-0.002-0.121 0-0.232 0.046-0.316 0.12l0-0c-0.094 0.085-0.153 0.207-0.153 0.343 0 0.067 0.014 0.131 0.040 0.189l-0.001-0.003c0.054 0.119 0.154 0.21 0.277 0.251l0.003 0.001c0.062 0.021 0.128 0.028 0.192 0.021h0.533v2.493c-0.002 0.017-0.017 0.030-0.034 0.030-0 0-0 0-0 0v0h-10.971c-0 0-0 0-0 0-0.017 0-0.032-0.013-0.034-0.030l-0-0v-2.493h8.499c0.12-0.012 0.225-0.067 0.301-0.149l0-0c0.076-0.082 0.123-0.192 0.123-0.313 0-0.241-0.186-0.439-0.423-0.458l-0.002-0h-9.439c-0.014 0.001-0.030 0.002-0.046 0.002-0.215 0-0.401-0.127-0.486-0.31l-0.001-0.003c-0.029-0.062-0.045-0.135-0.045-0.212 0-0.154 0.067-0.292 0.173-0.387l0-0c0.094-0.085 0.22-0.137 0.357-0.137 0.017 0 0.034 0.001 0.051 0.002l-0.002-0h0.974c0.12-0.012 0.225-0.067 0.301-0.149l0-0c0.075-0.082 0.121-0.191 0.121-0.311s-0.046-0.23-0.122-0.311l0 0c-0.076-0.083-0.182-0.138-0.3-0.149l-0.002-0h-0.858c-0.051-0.253-0.079-0.544-0.079-0.841 0-0.392 0.050-0.773 0.145-1.135l-0.007 0.031c0.174-0.671 0.477-1.255 0.883-1.751l-0.006 0.008c0.301 0.924 1.073 2.188 3.004 3.193 1.815 0.937 4.218 1.416 7.14 1.416h1.716c0.014-0.001 0.031-0.002 0.048-0.002 0.138 0 0.264 0.052 0.36 0.138l-0-0c0.106 0.096 0.173 0.235 0.174 0.389v0c0 0.154-0.067 0.292-0.173 0.388l-0 0c-0.094 0.085-0.22 0.137-0.357 0.137-0.017 0-0.035-0.001-0.052-0.002l0.002 0h0.031zM19.817 27.915l-0.343 0.526 0.007 0.005 0.336-0.531zM23.514 28.093l0.629-0.014-0.016-0.727-0.718 0.122 0.106 0.62zM23.557 30.027l0.16 0.609 0.48-0.127-0.011-0.496-0.629 0.014zM18.705 30.12l0.142-0.613h-0.004l-0.138 0.613zM16.31 29.051l0.407-0.479-0.001-0.001-0.405 0.48zM15.445 27.086l0.629 0.003v-0.003h-0.629zM15.746 25.71l-0.565-0.277v0.001l0.565 0.277zM17.675 24.065l0.223 0.587h0.003l-0.225-0.587zM23.853 23.905l0.627 0.049 0.041-0.531-0.517-0.128-0.151 0.61zM23.699 25.876l-0.117 0.619 0.69 0.13 0.055-0.7-0.627-0.049zM22.022 25.070c-0.944 0-1.737 0.1-2.317 0.356-0.297 0.13-0.567 0.314-0.764 0.574-0.187 0.245-0.299 0.556-0.299 0.893 0 0.006 0 0.011 0 0.017v-0.001h1.257c0-0.073 0.018-0.114 0.045-0.149 0.033-0.043 0.107-0.111 0.267-0.182 0.338-0.149 0.92-0.249 1.811-0.249v-1.259zM18.642 26.908c0 0.647 0.29 1.18 0.832 1.535l0.687-1.054c-0.187-0.122-0.261-0.26-0.261-0.481h-1.259zM19.482 28.447c0.513 0.325 1.191 0.448 1.951 0.448v-1.259c-0.656 0-1.055-0.111-1.279-0.252l-0.673 1.063zM21.433 28.895c0.747 0 1.476-0.060 2.187-0.181l-0.21-1.24c-0.64 0.109-1.299 0.164-1.977 0.164v1.257zM22.886 28.107l0.043 1.934 1.257-0.028-0.043-1.934-1.257 0.028zM23.398 29.419c-0.72 0.189-1.513 0.287-2.383 0.287v1.258c0.964 0 1.866-0.107 2.702-0.328l-0.32-1.216zM21.015 29.706c-0.889 0-1.607-0.070-2.168-0.199l-0.282 1.226c0.684 0.157 1.505 0.231 2.451 0.231v-1.258zM18.844 29.507c-0.601-0.135-1.034-0.277-1.323-0.419l-0.553 1.131c0.415 0.203 0.956 0.371 1.6 0.515l0.275-1.227zM17.521 29.088c-0.306-0.148-0.57-0.32-0.809-0.521l0.006 0.005-0.813 0.959c0.314 0.267 0.671 0.495 1.065 0.687l0.552-1.13zM16.718 28.571c-0.428-0.361-0.647-0.833-0.644-1.482l-1.258-0.006c-0.005 0.989 0.353 1.828 1.089 2.449l0.811-0.961zM16.074 27.086c0-0.423 0.083-0.785 0.237-1.099l-1.129-0.553c-0.247 0.505-0.366 1.060-0.366 1.653h1.258zM16.31 25.988c0.287-0.582 0.791-1.033 1.587-1.335l-0.446-1.175c-1.038 0.394-1.819 1.040-2.27 1.956l1.129 0.555zM17.9 24.651c0.836-0.321 1.771-0.486 2.808-0.486v-1.257c-1.173 0-2.261 0.186-3.259 0.57l0.451 1.174zM20.708 24.165c1.059 0 2.055 0.118 2.994 0.35l0.302-1.22c-0.969-0.246-2.082-0.387-3.228-0.387-0.024 0-0.048 0-0.072 0h0.004v1.257zM23.226 23.856l-0.154 1.972 1.254 0.097 0.154-1.971-1.254-0.098zM23.816 25.259c-0.654-0.124-1.253-0.19-1.793-0.19v1.259c0.442 0 0.961 0.053 1.559 0.166l0.235-1.235zM29.953 26.263l-0.004 0.629 0.639 0.004-0.007-0.639-0.628 0.007zM29.683 25.446l-0.428 0.461 0.006 0.005 0.422-0.466zM28.116 25.508l0.436 0.454 0.004-0.004-0.44-0.449zM27.735 26.251l-0.621-0.102-0.119 0.727 0.737 0.004 0.004-0.629zM32.36 29.604l0.38 0.501 0.226-0.171 0.021-0.283-0.627-0.047zM31.002 30.108l-0.135-0.614-0.004 0.001 0.139 0.614zM26.286 29.936l-0.215 0.591 0.005 0.002 0.21-0.593zM25.211 29.365l-0.39 0.493 0.008 0.006 0.383-0.498zM24.493 28.462l-0.564 0.279 0.001 0.003 0.562-0.282zM25.23 24.648v0zM30.978 23.966l0.252-0.576-0.006-0.003-0.245 0.579zM32.422 25.293l-0.566 0.275 0.001 0.004 0.565-0.279zM32.667 26.392l0.627 0.046 0.001-0.023v-0.023h-0.629zM32.593 27.405l-0.003 0.629 0.587 0.003 0.043-0.586-0.627-0.046zM27.612 27.381l0.004-0.629-0.821-0.004 0.209 0.794 0.608-0.161zM28.325 28.259l-0.309 0.548 0.002 0.001 0.307-0.549zM32.145 28.044v-0.629h-0.126l-0.116 0.048 0.242 0.58zM32.476 28.044l0.627 0.047 0.050-0.676h-0.678v0.629zM30.581 26.256c-0.005-0.455-0.11-0.943-0.476-1.276l-0.846 0.932c-0.007-0.007 0.007 0.001 0.026 0.055 0.018 0.058 0.037 0.154 0.038 0.302l1.258-0.014zM30.11 24.986c-0.33-0.306-0.763-0.407-1.189-0.407v1.257c0.245 0 0.32 0.059 0.334 0.071l0.855-0.921zM28.921 24.578c-0.469 0-0.904 0.146-1.244 0.48l0.88 0.899c0.069-0.068 0.17-0.121 0.365-0.121v-1.259zM27.681 25.055c-0.295 0.284-0.499 0.661-0.565 1.084l-0.001 0.011 1.241 0.204c0.020-0.155 0.092-0.29 0.196-0.391l0-0-0.871-0.908zM27.732 26.88l2.217 0.012 0.007-1.258-2.217-0.012-0.007 1.258zM31.98 29.103c-0.138 0.105-0.474 0.25-1.113 0.391l0.27 1.228c0.664-0.146 1.232-0.336 1.602-0.617l-0.759-1.003zM30.864 29.494c-0.609 0.138-1.195 0.206-1.759 0.206v1.257c0.664 0 1.344-0.080 2.037-0.237l-0.277-1.227zM29.105 29.7c-0.593 0-1.081-0.028-1.47-0.081l-0.168 1.247c0.462 0.063 1.010 0.092 1.638 0.092v-1.259zM27.635 29.619c-0.428-0.059-0.813-0.156-1.18-0.289l0.040 0.013-0.419 1.186c0.399 0.147 0.869 0.265 1.354 0.333l0.037 0.004 0.168-1.247zM26.5 29.345c-0.346-0.122-0.646-0.284-0.915-0.486l0.009 0.006-0.765 0.998c0.358 0.274 0.775 0.494 1.243 0.663l0.429-1.182zM25.601 28.871c-0.228-0.186-0.412-0.416-0.541-0.679l-0.005-0.012-1.125 0.562c0.219 0.443 0.519 0.815 0.884 1.11l0.006 0.005 0.781-0.986zM25.056 28.183c-0.132-0.267-0.211-0.612-0.211-1.054h-1.257c0 0.59 0.105 1.134 0.341 1.611l1.127-0.558zM24.845 27.129c0-0.442 0.080-0.833 0.231-1.18l-1.154-0.501c-0.211 0.484-0.334 1.047-0.334 1.639 0 0.015 0 0.029 0 0.044l-0-0.002h1.258zM25.076 25.948c0.159-0.366 0.353-0.636 0.572-0.831l-0.837-0.94c-0.378 0.336-0.671 0.767-0.889 1.269l1.153 0.501zM25.648 25.117c0.676-0.602 1.707-0.952 3.193-0.952v-1.257c-1.668 0-3.044 0.391-4.030 1.271l0.837 0.939zM28.841 24.165c0.666 0 1.295 0.127 1.892 0.38l0.491-1.158c-0.696-0.303-1.507-0.479-2.359-0.479-0.008 0-0.016 0-0.024 0h0.001v1.257zM30.726 24.543c0.557 0.243 0.917 0.587 1.129 1.025l1.131-0.55c-0.36-0.741-0.962-1.281-1.756-1.628l-0.503 1.153zM31.857 25.572c0.118 0.238 0.181 0.508 0.181 0.821h1.257c0-0.489-0.1-0.953-0.311-1.378l-1.128 0.557zM32.040 26.347l-0.074 1.013 1.254 0.091 0.074-1.013-1.254-0.091zM32.597 26.777l-4.981-0.025-0.006 1.258 4.981 0.024 0.006-1.258zM27.004 27.541c0.147 0.558 0.506 0.98 1.011 1.266l0.619-1.095c-0.249-0.141-0.364-0.304-0.414-0.491l-1.216 0.32zM28.018 28.808c0.511 0.285 1.148 0.4 1.861 0.4v-1.258c-0.597 0-0.996-0.099-1.247-0.24l-0.614 1.098zM29.879 29.207c0.765 0 1.605-0.207 2.508-0.583l-0.484-1.161c-0.809 0.336-1.479 0.486-2.025 0.486v1.258zM32.145 28.673h0.331v-1.257h-0.331v1.257zM31.849 27.997l-0.117 1.56 1.254 0.094 0.117-1.56-1.254-0.094z"></path>
</symbol>
<symbol id="icon-telegram" viewBox="0 0 44 32">
<path d="M17.342 21.048l-0.674 8.86c0.966 0 1.384-0.388 1.886-0.852l4.526-4.040 9.38 6.414c1.72 0.894 2.934 0.422 3.398-1.478l6.158-26.932c0.546-2.374-0.92-3.302-2.594-2.72l-36.196 12.934c-2.47 0.896-2.432 2.18-0.418 2.766l9.252 2.684 21.494-12.552c1.012-0.626 1.932-0.28 1.174 0.346l-17.386 14.57z"></path>
</symbol>
</defs>
</svg>
